<svg width="114" height="55" viewBox="0 0 114 55" fill="none" xmlns="http://www.w3.org/2000/svg">
<mask id="mask0_10335_12341" style="mask-type:luminance" maskUnits="userSpaceOnUse" x="0" y="0" width="114" height="55">
<path d="M0.243592 0.243592H113.756V53.9064H0.243592V0.243592Z" fill="white" stroke="white" stroke-width="0.487183"/>
</mask>
<g mask="url(#mask0_10335_12341)">
<path d="M45.0346 25.6453C45.0346 27.7618 43.3236 29.4747 41.2109 29.4747C39.0982 29.4747 37.3871 27.7618 37.3871 25.6453C37.3871 23.5288 39.0982 21.8159 41.2109 21.8159C43.3236 21.8159 45.0346 23.5288 45.0346 25.6453Z" fill="#AA00EA" stroke="#AA00EA" stroke-width="0.487183"/>
<path d="M106.832 4.07302C106.832 6.18952 105.12 7.90244 103.008 7.90244C100.895 7.90244 99.184 6.18952 99.184 4.07302C99.184 1.95651 100.895 0.243592 103.008 0.243592C105.12 0.243592 106.832 1.95651 106.832 4.07302Z" fill="#AA00EA" stroke="#AA00EA" stroke-width="0.487183"/>
<path d="M77.4311 14.3352C77.4311 16.4517 75.7201 18.1646 73.6074 18.1646C71.4946 18.1646 69.7836 16.4517 69.7836 14.3352C69.7836 12.2187 71.4946 10.5058 73.6074 10.5058C75.7201 10.5058 77.4311 12.2187 77.4311 14.3352Z" fill="#AA00EA" stroke="#AA00EA" stroke-width="0.487183"/>
<path d="M94.6354 48.8901V46.0502H96.0824V53.4858H94.6354V50.5977V50.3541H94.3918H91.0596H90.816V50.5977V53.4858H89.3569V46.0502H90.816V48.8901V49.1337H91.0596H94.3918H94.6354V48.8901Z" fill="#AA00EA" stroke="#AA00EA" stroke-width="0.487183"/>
<mask id="path-6-inside-1_10335_12341" fill="white">
<path d="M100.229 51.008H99.6621V53.7294H97.7158V45.8066H101.717C103.428 45.8066 104.561 46.8505 104.561 48.3953C104.561 49.6986 103.76 50.6279 102.482 50.9115L104.959 53.7234H102.609L100.223 51.002L100.229 51.008ZM102.651 48.4194C102.651 47.8522 102.205 47.472 101.506 47.472H99.6621V49.3728H101.506C102.205 49.3728 102.651 48.9926 102.651 48.4134"/>
</mask>
<path d="M100.229 51.008H99.6621V53.7294H97.7158V45.8066H101.717C103.428 45.8066 104.561 46.8505 104.561 48.3953C104.561 49.6986 103.76 50.6279 102.482 50.9115L104.959 53.7234H102.609L100.223 51.002L100.229 51.008ZM102.651 48.4194C102.651 47.8522 102.205 47.472 101.506 47.472H99.6621V49.3728H101.506C102.205 49.3728 102.651 48.9926 102.651 48.4134" fill="#AA00EA"/>
<path d="M100.229 51.008V51.4952H101.403L100.573 50.6639L100.229 51.008ZM99.6621 51.008V50.5208H99.1749V51.008H99.6621ZM99.6621 53.7294V54.2166H100.149V53.7294H99.6621ZM97.7158 53.7294H97.2286V54.2166H97.7158V53.7294ZM97.7158 45.8066V45.3195H97.2286V45.8066H97.7158ZM102.482 50.9115L102.377 50.4359L101.571 50.6146L102.117 51.2335L102.482 50.9115ZM104.959 53.7234V54.2106H106.037L105.324 53.4014L104.959 53.7234ZM102.609 53.7234L102.242 54.0446L102.388 54.2106H102.609V53.7234ZM100.223 51.002L100.567 50.6579L99.8562 51.3232L100.223 51.002ZM99.6621 47.472V46.9849H99.1749V47.472H99.6621ZM99.6621 49.3728H99.1749V49.86H99.6621V49.3728ZM100.229 50.5208H99.6621V51.4952H100.229V50.5208ZM99.1749 51.008V53.7294H100.149V51.008H99.1749ZM99.6621 53.2422H97.7158V54.2166H99.6621V53.2422ZM98.203 53.7294V45.8066H97.2286V53.7294H98.203ZM97.7158 46.2938H101.717V45.3195H97.7158V46.2938ZM101.717 46.2938C102.474 46.2938 103.06 46.5237 103.452 46.8814C103.84 47.2356 104.074 47.7482 104.074 48.3953H105.048C105.048 47.4976 104.716 46.7159 104.109 46.162C103.507 45.6115 102.671 45.3195 101.717 45.3195V46.2938ZM104.074 48.3953C104.074 48.9433 103.907 49.3881 103.627 49.7233C103.345 50.0603 102.926 50.314 102.377 50.4359L102.588 51.3871C103.316 51.2254 103.936 50.8727 104.374 50.3483C104.814 49.8221 105.048 49.1506 105.048 48.3953H104.074ZM102.117 51.2335L104.593 54.0454L105.324 53.4014L102.848 50.5895L102.117 51.2335ZM104.959 53.2362H102.609V54.2106H104.959V53.2362ZM102.975 53.4022L100.589 50.6808L99.8562 51.3232L102.242 54.0446L102.975 53.4022ZM99.8776 51.3461L99.8837 51.3521L100.573 50.6639L100.567 50.6579L99.8776 51.3461ZM103.138 48.4194C103.138 47.9979 102.967 47.6216 102.653 47.359C102.346 47.1032 101.94 46.9849 101.506 46.9849V47.9592C101.771 47.9592 101.937 48.031 102.028 48.1071C102.111 48.1763 102.164 48.2737 102.164 48.4194H103.138ZM101.506 46.9849H99.6621V47.9592H101.506V46.9849ZM99.1749 47.472V49.3728H100.149V47.472H99.1749ZM99.6621 49.86H101.506V48.8856H99.6621V49.86ZM101.506 49.86C101.94 49.86 102.347 49.7417 102.654 49.483C102.97 49.2173 103.138 48.8377 103.138 48.4134H102.164C102.164 48.5683 102.109 48.6684 102.027 48.7377C101.936 48.8138 101.771 48.8856 101.506 48.8856V49.86Z" fill="#AA00EA" mask="url(#path-6-inside-1_10335_12341)"/>
<mask id="path-8-inside-2_10335_12341" fill="white">
<path d="M58.4082 21.5674C52.2138 21.5674 47.1221 26.1533 47.1221 32.8692C47.1221 39.5852 52.2138 44.1711 58.366 44.1711C63.2468 44.1711 67.1033 42.0049 68.929 37.5034L62.9034 36.2725C61.7585 38.3542 59.9327 38.7344 58.366 38.7344C56.0762 38.7344 54.3348 37.1595 53.7865 34.6131H69.399V32.8692C69.2725 25.9059 64.4339 21.5674 58.4142 21.5674M53.9191 30.4435C54.5578 28.2773 56.5101 27.0886 58.4142 27.0886C60.3183 27.0886 62.0658 28.1506 62.6985 30.4435H53.9191Z"/>
</mask>
<path d="M58.4082 21.5674C52.2138 21.5674 47.1221 26.1533 47.1221 32.8692C47.1221 39.5852 52.2138 44.1711 58.366 44.1711C63.2468 44.1711 67.1033 42.0049 68.929 37.5034L62.9034 36.2725C61.7585 38.3542 59.9327 38.7344 58.366 38.7344C56.0762 38.7344 54.3348 37.1595 53.7865 34.6131H69.399V32.8692C69.2725 25.9059 64.4339 21.5674 58.4142 21.5674M53.9191 30.4435C54.5578 28.2773 56.5101 27.0886 58.4142 27.0886C60.3183 27.0886 62.0658 28.1506 62.6985 30.4435H53.9191Z" fill="#AA00EA"/>
<path d="M68.929 37.5034L69.3805 37.6865L69.6008 37.1434L69.0265 37.0261L68.929 37.5034ZM62.9034 36.2725L63.0009 35.7952L62.6494 35.7233L62.4765 36.0377L62.9034 36.2725ZM53.7865 34.6131V34.1259H53.1832L53.3102 34.7157L53.7865 34.6131ZM69.399 34.6131V35.1003H69.8862V34.6131H69.399ZM69.399 32.8692H69.8863L69.8861 32.8604L69.399 32.8692ZM53.9191 30.4435L53.4518 30.3058L53.2675 30.9307H53.9191V30.4435ZM62.6985 30.4435V30.9307H63.3383L63.1681 30.314L62.6985 30.4435ZM58.4082 21.0802C51.9588 21.0802 46.6349 25.8704 46.6349 32.8692H47.6093C47.6093 26.4362 52.4688 22.0546 58.4082 22.0546V21.0802ZM46.6349 32.8692C46.6349 39.8669 51.9576 44.6583 58.366 44.6583V43.6839C52.47 43.6839 47.6093 39.3035 47.6093 32.8692H46.6349ZM58.366 44.6583C63.4104 44.6583 67.4679 42.4021 69.3805 37.6865L68.4776 37.3203C66.7386 41.6077 63.0833 43.6839 58.366 43.6839V44.6583ZM69.0265 37.0261L63.0009 35.7952L62.8058 36.7498L68.8315 37.9808L69.0265 37.0261ZM62.4765 36.0377C61.4546 37.8959 59.8491 38.2472 58.366 38.2472V39.2216C60.0163 39.2216 62.0624 38.8126 63.3302 36.5072L62.4765 36.0377ZM58.366 38.2472C56.3494 38.2472 54.7726 36.8782 54.2628 34.5105L53.3102 34.7157C53.8971 37.4408 55.8031 39.2216 58.366 39.2216V38.2472ZM53.7865 35.1003H69.399V34.1259H53.7865V35.1003ZM69.8862 34.6131V32.8692H68.9119V34.6131H69.8862ZM69.8861 32.8604C69.7548 25.6345 64.7025 21.0802 58.4142 21.0802V22.0546C64.1653 22.0546 68.7902 26.1773 68.9119 32.8781L69.8861 32.8604ZM54.3863 30.5813C54.9576 28.6437 56.7028 27.5758 58.4142 27.5758V26.6014C56.3174 26.6014 54.1579 27.9109 53.4518 30.3058L54.3863 30.5813ZM58.4142 27.5758C60.1146 27.5758 61.6585 28.506 62.2288 30.5731L63.1681 30.314C62.4731 27.7952 60.522 26.6014 58.4142 26.6014V27.5758ZM62.6985 29.9564H53.9191V30.9307H62.6985V29.9564Z" fill="#AA00EA" mask="url(#path-8-inside-2_10335_12341)"/>
<path d="M81.6786 53.4758H74.9121L79.4774 42.9002L79.5188 42.8042L79.4777 42.708L70.8192 22.4408H77.5832L82.553 34.6949L82.7715 35.2335L83.0023 34.7001L88.3076 22.4408H99.7049V22.2033H99.9485V22.1972V21.9537V15.3085H106.246V22.2033V22.4469H106.49H112.525V27.3542H106.49H106.246V27.5978V34.9895C106.246 36.1288 106.52 36.9769 107.069 37.5388C107.619 38.1017 108.404 38.3347 109.334 38.3347C110.22 38.3347 111.382 38.0473 112.282 37.5966L113.714 42.4709C112.132 43.305 110.474 43.9178 108.189 43.9178C105.58 43.9178 103.528 43.2073 102.129 41.8412C100.73 40.476 99.9485 38.4226 99.9485 35.6654V27.5917V27.3481H99.7049H93.1128H92.9526L92.8892 27.4952L81.6786 53.4758Z" fill="#AA00EA" stroke="#AA00EA" stroke-width="0.487183"/>
<path d="M34.8247 40.1686V43.286H28.5209V22.4487H34.8247V26.2841V36.8619V40.1686Z" fill="#AA00EA" stroke="#AA00EA" stroke-width="0.487183"/>
<path d="M16.8477 24.0886L17.2541 24.454V23.9075V22.4494H23.5579V43.9588C23.5579 47.1759 22.1951 49.6542 19.9902 51.3348C17.7785 53.0206 14.7057 53.9128 11.2861 53.9128C6.56317 53.9128 3.01847 52.3039 0.974419 49.0944L6.22705 45.8519C6.96918 46.7303 7.657 47.363 8.42978 47.7787C9.25392 48.222 10.1549 48.4081 11.2861 48.4081C12.8504 48.4081 14.3386 48.0162 15.4419 47.1723C16.5537 46.322 17.2541 45.0273 17.2541 43.2769V41.8348V41.2882L16.8477 41.6536C15.2463 43.0934 13.1009 43.9264 10.3943 43.9264C4.89969 43.9264 0.243592 39.4546 0.243592 32.8681C0.243592 26.2815 4.89969 21.81 10.3941 21.8159H10.3943C13.095 21.8159 15.2463 22.6489 16.8477 24.0886ZM7.52352 32.8741C7.52352 35.2591 9.45202 37.1907 11.8345 37.1907C14.2169 37.1907 16.1454 35.2591 16.1454 32.8741C16.1454 30.4892 14.2169 28.5575 11.8345 28.5575C9.45202 28.5575 7.52352 30.4892 7.52352 32.8741Z" fill="#AA00EA" stroke="#AA00EA" stroke-width="0.487183"/>
</g>
</svg>
